<?xml version="1.0" encoding="UTF-8" standalone="no"?>
<!DOCTYPE svg PUBLIC "-//W3C//DTD SVG 1.1//EN"
 "http://www.w3.org/Graphics/SVG/1.1/DTD/svg11.dtd">
<!-- Generated by graphviz version 2.43.0 (0)
 -->
<!-- Title: /home/allan/Module_Image2/src/Image.h Pages: 1 -->
<svg width="127pt" height="95pt"
 viewBox="0.00 0.00 127.00 95.00" xmlns="http://www.w3.org/2000/svg" xmlns:xlink="http://www.w3.org/1999/xlink">
<g id="graph0" class="graph" transform="scale(1 1) rotate(0) translate(4 91)">
<title>/home/allan/Module_Image2/src/Image.h</title>
<!-- Node1 -->
<g id="node1" class="node">
<title>Node1</title>
<g id="a_node1"><a xlink:title="Définition des donées membres et des fonctions membres de la classe Image.">
<polygon fill="#bfbfbf" stroke="black" points="0,-56.5 0,-86.5 119,-86.5 119,-56.5 0,-56.5"/>
<text text-anchor="start" x="8" y="-74.5" font-family="Helvetica,sans-Serif" font-size="10.00">/home/allan/Module</text>
<text text-anchor="middle" x="59.5" y="-63.5" font-family="Helvetica,sans-Serif" font-size="10.00">_Image2/src/Image.h</text>
</a>
</g>
</g>
<!-- Node2 -->
<g id="node2" class="node">
<title>Node2</title>
<g id="a_node2"><a xlink:title=" ">
<polygon fill="none" stroke="#bfbfbf" points="5.5,-0.5 5.5,-19.5 49.5,-19.5 49.5,-0.5 5.5,-0.5"/>
<text text-anchor="middle" x="27.5" y="-7.5" font-family="Helvetica,sans-Serif" font-size="10.00">string</text>
</a>
</g>
</g>
<!-- Node1&#45;&gt;Node2 -->
<g id="edge1" class="edge">
<title>Node1&#45;&gt;Node2</title>
<path fill="none" stroke="midnightblue" d="M51.92,-56.4C47.46,-48.11 41.78,-37.55 37.02,-28.71"/>
<polygon fill="midnightblue" stroke="midnightblue" points="39.98,-26.81 32.16,-19.66 33.81,-30.12 39.98,-26.81"/>
</g>
<!-- Node3 -->
<g id="node3" class="node">
<title>Node3</title>
<g id="a_node3"><a xlink:href="_pixel_8h.html" target="_top" xlink:title="Programme de déclaration de la classe Pixel.">
<polygon fill="none" stroke="black" points="68,-0.5 68,-19.5 117,-19.5 117,-0.5 68,-0.5"/>
<text text-anchor="middle" x="92.5" y="-7.5" font-family="Helvetica,sans-Serif" font-size="10.00">Pixel.h</text>
</a>
</g>
</g>
<!-- Node1&#45;&gt;Node3 -->
<g id="edge2" class="edge">
<title>Node1&#45;&gt;Node3</title>
<path fill="none" stroke="midnightblue" d="M67.32,-56.4C71.97,-48.02 77.9,-37.33 82.84,-28.42"/>
<polygon fill="midnightblue" stroke="midnightblue" points="85.91,-30.1 87.7,-19.66 79.79,-26.71 85.91,-30.1"/>
</g>
</g>
</svg>
