<?xml version="1.0" encoding="UTF-8" standalone="no"?>
<!DOCTYPE svg PUBLIC "-//W3C//DTD SVG 1.1//EN"
 "http://www.w3.org/Graphics/SVG/1.1/DTD/svg11.dtd">
<!-- Generated by graphviz version 2.43.0 (0)
 -->
<!-- Title: /home/allan/Module_Image2/src/Image.cpp Pages: 1 -->
<svg width="328pt" height="151pt"
 viewBox="0.00 0.00 328.00 151.00" xmlns="http://www.w3.org/2000/svg" xmlns:xlink="http://www.w3.org/1999/xlink">
<g id="graph0" class="graph" transform="scale(1 1) rotate(0) translate(4 147)">
<title>/home/allan/Module_Image2/src/Image.cpp</title>
<!-- Node1 -->
<g id="node1" class="node">
<title>Node1</title>
<g id="a_node1"><a xlink:title="Créations des fonctions et procédures de Image.">
<polygon fill="#bfbfbf" stroke="black" points="97,-112.5 97,-142.5 227,-142.5 227,-112.5 97,-112.5"/>
<text text-anchor="start" x="105" y="-130.5" font-family="Helvetica,sans-Serif" font-size="10.00">/home/allan/Module</text>
<text text-anchor="middle" x="162" y="-119.5" font-family="Helvetica,sans-Serif" font-size="10.00">_Image2/src/Image.cpp</text>
</a>
</g>
</g>
<!-- Node2 -->
<g id="node2" class="node">
<title>Node2</title>
<g id="a_node2"><a xlink:title=" ">
<polygon fill="none" stroke="#bfbfbf" points="0,-56.5 0,-75.5 60,-75.5 60,-56.5 0,-56.5"/>
<text text-anchor="middle" x="30" y="-63.5" font-family="Helvetica,sans-Serif" font-size="10.00">iostream</text>
</a>
</g>
</g>
<!-- Node1&#45;&gt;Node2 -->
<g id="edge1" class="edge">
<title>Node1&#45;&gt;Node2</title>
<path fill="none" stroke="midnightblue" d="M130.72,-112.4C108.77,-102.51 79.66,-89.38 58.38,-79.79"/>
<polygon fill="midnightblue" stroke="midnightblue" points="59.76,-76.58 49.21,-75.66 56.89,-82.96 59.76,-76.58"/>
</g>
<!-- Node3 -->
<g id="node3" class="node">
<title>Node3</title>
<g id="a_node3"><a xlink:title=" ">
<polygon fill="none" stroke="#bfbfbf" points="78,-56.5 78,-75.5 134,-75.5 134,-56.5 78,-56.5"/>
<text text-anchor="middle" x="106" y="-63.5" font-family="Helvetica,sans-Serif" font-size="10.00">assert.h</text>
</a>
</g>
</g>
<!-- Node1&#45;&gt;Node3 -->
<g id="edge2" class="edge">
<title>Node1&#45;&gt;Node3</title>
<path fill="none" stroke="midnightblue" d="M148.73,-112.4C140.42,-103.58 129.7,-92.18 121.08,-83.02"/>
<polygon fill="midnightblue" stroke="midnightblue" points="123.55,-80.54 114.15,-75.66 118.45,-85.34 123.55,-80.54"/>
</g>
<!-- Node4 -->
<g id="node4" class="node">
<title>Node4</title>
<g id="a_node4"><a xlink:title=" ">
<polygon fill="none" stroke="#bfbfbf" points="173,-0.5 173,-19.5 217,-19.5 217,-0.5 173,-0.5"/>
<text text-anchor="middle" x="195" y="-7.5" font-family="Helvetica,sans-Serif" font-size="10.00">string</text>
</a>
</g>
</g>
<!-- Node1&#45;&gt;Node4 -->
<g id="edge3" class="edge">
<title>Node1&#45;&gt;Node4</title>
<path fill="none" stroke="midnightblue" d="M165.63,-112.41C169.34,-98.15 175.35,-75.48 181,-56 183.57,-47.15 186.59,-37.37 189.16,-29.2"/>
<polygon fill="midnightblue" stroke="midnightblue" points="192.52,-30.19 192.22,-19.6 185.85,-28.07 192.52,-30.19"/>
</g>
<!-- Node5 -->
<g id="node5" class="node">
<title>Node5</title>
<g id="a_node5"><a xlink:title=" ">
<polygon fill="none" stroke="#bfbfbf" points="190.5,-56.5 190.5,-75.5 245.5,-75.5 245.5,-56.5 190.5,-56.5"/>
<text text-anchor="middle" x="218" y="-63.5" font-family="Helvetica,sans-Serif" font-size="10.00">fstream</text>
</a>
</g>
</g>
<!-- Node1&#45;&gt;Node5 -->
<g id="edge4" class="edge">
<title>Node1&#45;&gt;Node5</title>
<path fill="none" stroke="midnightblue" d="M175.27,-112.4C183.58,-103.58 194.3,-92.18 202.92,-83.02"/>
<polygon fill="midnightblue" stroke="midnightblue" points="205.55,-85.34 209.85,-75.66 200.45,-80.54 205.55,-85.34"/>
</g>
<!-- Node6 -->
<g id="node6" class="node">
<title>Node6</title>
<g id="a_node6"><a xlink:href="_image_8h.html" target="_top" xlink:title="Définition des donées membres et des fonctions membres de la classe Image.">
<polygon fill="none" stroke="black" points="264,-56.5 264,-75.5 320,-75.5 320,-56.5 264,-56.5"/>
<text text-anchor="middle" x="292" y="-63.5" font-family="Helvetica,sans-Serif" font-size="10.00">Image.h</text>
</a>
</g>
</g>
<!-- Node1&#45;&gt;Node6 -->
<g id="edge5" class="edge">
<title>Node1&#45;&gt;Node6</title>
<path fill="none" stroke="midnightblue" d="M192.81,-112.4C214.33,-102.55 242.84,-89.5 263.77,-79.92"/>
<polygon fill="midnightblue" stroke="midnightblue" points="265.45,-83 273.08,-75.66 262.53,-76.64 265.45,-83"/>
</g>
<!-- Node6&#45;&gt;Node4 -->
<g id="edge6" class="edge">
<title>Node6&#45;&gt;Node4</title>
<path fill="none" stroke="midnightblue" d="M276.42,-56.32C261,-47.74 237.19,-34.49 219.29,-24.52"/>
<polygon fill="midnightblue" stroke="midnightblue" points="220.99,-21.46 210.55,-19.65 217.58,-27.58 220.99,-21.46"/>
</g>
<!-- Node7 -->
<g id="node7" class="node">
<title>Node7</title>
<g id="a_node7"><a xlink:href="_pixel_8h.html" target="_top" xlink:title="Programme de déclaration de la classe Pixel.">
<polygon fill="none" stroke="black" points="267.5,-0.5 267.5,-19.5 316.5,-19.5 316.5,-0.5 267.5,-0.5"/>
<text text-anchor="middle" x="292" y="-7.5" font-family="Helvetica,sans-Serif" font-size="10.00">Pixel.h</text>
</a>
</g>
</g>
<!-- Node6&#45;&gt;Node7 -->
<g id="edge7" class="edge">
<title>Node6&#45;&gt;Node7</title>
<path fill="none" stroke="midnightblue" d="M292,-56.08C292,-49.01 292,-38.86 292,-29.99"/>
<polygon fill="midnightblue" stroke="midnightblue" points="295.5,-29.75 292,-19.75 288.5,-29.75 295.5,-29.75"/>
</g>
</g>
</svg>
