<?xml version="1.0" encoding="UTF-8" standalone="no"?>
<!DOCTYPE svg PUBLIC "-//W3C//DTD SVG 1.1//EN"
 "http://www.w3.org/Graphics/SVG/1.1/DTD/svg11.dtd">
<!-- Generated by graphviz version 2.43.0 (0)
 -->
<!-- Title: /home/allan/Module_Image2/src/Pixel.cpp Pages: 1 -->
<svg width="136pt" height="95pt"
 viewBox="0.00 0.00 136.00 95.00" xmlns="http://www.w3.org/2000/svg" xmlns:xlink="http://www.w3.org/1999/xlink">
<g id="graph0" class="graph" transform="scale(1 1) rotate(0) translate(4 91)">
<title>/home/allan/Module_Image2/src/Pixel.cpp</title>
<!-- Node1 -->
<g id="node1" class="node">
<title>Node1</title>
<g id="a_node1"><a xlink:title="Créations des fonctions et procédures de Pixel.">
<polygon fill="#bfbfbf" stroke="black" points="0,-56.5 0,-86.5 122,-86.5 122,-56.5 0,-56.5"/>
<text text-anchor="start" x="8" y="-74.5" font-family="Helvetica,sans-Serif" font-size="10.00">/home/allan/Module</text>
<text text-anchor="middle" x="61" y="-63.5" font-family="Helvetica,sans-Serif" font-size="10.00">_Image2/src/Pixel.cpp</text>
</a>
</g>
</g>
<!-- Node2 -->
<g id="node2" class="node">
<title>Node2</title>
<g id="a_node2"><a xlink:href="_pixel_8h.html" target="_top" xlink:title="Programme de déclaration de la classe Pixel.">
<polygon fill="none" stroke="black" points="0.5,-0.5 0.5,-19.5 49.5,-19.5 49.5,-0.5 0.5,-0.5"/>
<text text-anchor="middle" x="25" y="-7.5" font-family="Helvetica,sans-Serif" font-size="10.00">Pixel.h</text>
</a>
</g>
</g>
<!-- Node1&#45;&gt;Node2 -->
<g id="edge1" class="edge">
<title>Node1&#45;&gt;Node2</title>
<path fill="none" stroke="midnightblue" d="M52.47,-56.4C47.4,-48.02 40.93,-37.33 35.54,-28.42"/>
<polygon fill="midnightblue" stroke="midnightblue" points="38.41,-26.4 30.24,-19.66 32.42,-30.03 38.41,-26.4"/>
</g>
<!-- Node3 -->
<g id="node3" class="node">
<title>Node3</title>
<g id="a_node3"><a xlink:title=" ">
<polygon fill="none" stroke="#bfbfbf" points="68,-0.5 68,-19.5 128,-19.5 128,-0.5 68,-0.5"/>
<text text-anchor="middle" x="98" y="-7.5" font-family="Helvetica,sans-Serif" font-size="10.00">iostream</text>
</a>
</g>
</g>
<!-- Node1&#45;&gt;Node3 -->
<g id="edge2" class="edge">
<title>Node1&#45;&gt;Node3</title>
<path fill="none" stroke="midnightblue" d="M69.77,-56.4C74.98,-48.02 81.63,-37.33 87.17,-28.42"/>
<polygon fill="midnightblue" stroke="midnightblue" points="90.31,-30 92.62,-19.66 84.36,-26.3 90.31,-30"/>
</g>
</g>
</svg>
