<?xml version="1.0" encoding="UTF-8" standalone="no"?>
<!DOCTYPE svg PUBLIC "-//W3C//DTD SVG 1.1//EN"
 "http://www.w3.org/Graphics/SVG/1.1/DTD/svg11.dtd">
<!-- Generated by graphviz version 2.43.0 (0)
 -->
<!-- Title: /home/allan/Module_Image2/src/Pixel.h Pages: 1 -->
<svg width="484pt" height="173pt"
 viewBox="0.00 0.00 483.50 173.00" xmlns="http://www.w3.org/2000/svg" xmlns:xlink="http://www.w3.org/1999/xlink">
<g id="graph0" class="graph" transform="scale(1 1) rotate(0) translate(4 169)">
<title>/home/allan/Module_Image2/src/Pixel.h</title>
<!-- Node1 -->
<g id="node1" class="node">
<title>Node1</title>
<g id="a_node1"><a xlink:title="Programme de déclaration de la classe Pixel.">
<polygon fill="#bfbfbf" stroke="black" points="243.5,-134.5 243.5,-164.5 356.5,-164.5 356.5,-134.5 243.5,-134.5"/>
<text text-anchor="start" x="251.5" y="-152.5" font-family="Helvetica,sans-Serif" font-size="10.00">/home/allan/Module</text>
<text text-anchor="middle" x="300" y="-141.5" font-family="Helvetica,sans-Serif" font-size="10.00">_Image2/src/Pixel.h</text>
</a>
</g>
</g>
<!-- Node2 -->
<g id="node2" class="node">
<title>Node2</title>
<g id="a_node2"><a xlink:href="_image_8h.html" target="_top" xlink:title="Définition des donées membres et des fonctions membres de la classe Image.">
<polygon fill="none" stroke="black" points="171.5,-67.5 171.5,-97.5 290.5,-97.5 290.5,-67.5 171.5,-67.5"/>
<text text-anchor="start" x="179.5" y="-85.5" font-family="Helvetica,sans-Serif" font-size="10.00">/home/allan/Module</text>
<text text-anchor="middle" x="231" y="-74.5" font-family="Helvetica,sans-Serif" font-size="10.00">_Image2/src/Image.h</text>
</a>
</g>
</g>
<!-- Node1&#45;&gt;Node2 -->
<g id="edge1" class="edge">
<title>Node1&#45;&gt;Node2</title>
<path fill="none" stroke="midnightblue" d="M277.51,-127.31C267.16,-117.56 255.16,-106.26 245.94,-97.58"/>
<polygon fill="midnightblue" stroke="midnightblue" points="275.35,-130.09 285.03,-134.4 280.15,-124.99 275.35,-130.09"/>
</g>
<!-- Node6 -->
<g id="node6" class="node">
<title>Node6</title>
<g id="a_node6"><a xlink:href="_pixel_8cpp.html" target="_top" xlink:title="Créations des fonctions et procédures de Pixel.">
<polygon fill="none" stroke="black" points="309,-67.5 309,-97.5 431,-97.5 431,-67.5 309,-67.5"/>
<text text-anchor="start" x="317" y="-85.5" font-family="Helvetica,sans-Serif" font-size="10.00">/home/allan/Module</text>
<text text-anchor="middle" x="370" y="-74.5" font-family="Helvetica,sans-Serif" font-size="10.00">_Image2/src/Pixel.cpp</text>
</a>
</g>
</g>
<!-- Node1&#45;&gt;Node6 -->
<g id="edge5" class="edge">
<title>Node1&#45;&gt;Node6</title>
<path fill="none" stroke="midnightblue" d="M322.82,-127.31C333.32,-117.56 345.49,-106.26 354.84,-97.58"/>
<polygon fill="midnightblue" stroke="midnightblue" points="320.14,-125.03 315.19,-134.4 324.9,-130.16 320.14,-125.03"/>
</g>
<!-- Node3 -->
<g id="node3" class="node">
<title>Node3</title>
<g id="a_node3"><a xlink:href="_image_8cpp.html" target="_top" xlink:title="Créations des fonctions et procédures de Image.">
<polygon fill="none" stroke="black" points="0,-0.5 0,-30.5 130,-30.5 130,-0.5 0,-0.5"/>
<text text-anchor="start" x="8" y="-18.5" font-family="Helvetica,sans-Serif" font-size="10.00">/home/allan/Module</text>
<text text-anchor="middle" x="65" y="-7.5" font-family="Helvetica,sans-Serif" font-size="10.00">_Image2/src/Image.cpp</text>
</a>
</g>
</g>
<!-- Node2&#45;&gt;Node3 -->
<g id="edge2" class="edge">
<title>Node2&#45;&gt;Node3</title>
<path fill="none" stroke="midnightblue" d="M185.49,-63.68C158.87,-53.26 125.73,-40.28 100.95,-30.58"/>
<polygon fill="midnightblue" stroke="midnightblue" points="184.39,-67.01 194.98,-67.4 186.95,-60.49 184.39,-67.01"/>
</g>
<!-- Node4 -->
<g id="node4" class="node">
<title>Node4</title>
<g id="a_node4"><a xlink:href="main_exemple_8cpp.html" target="_top" xlink:title=" ">
<polygon fill="none" stroke="black" points="148,-0.5 148,-30.5 314,-30.5 314,-0.5 148,-0.5"/>
<text text-anchor="start" x="156" y="-18.5" font-family="Helvetica,sans-Serif" font-size="10.00">/home/allan/Module</text>
<text text-anchor="middle" x="231" y="-7.5" font-family="Helvetica,sans-Serif" font-size="10.00">_Image2/src/mainExemple.cpp</text>
</a>
</g>
</g>
<!-- Node2&#45;&gt;Node4 -->
<g id="edge3" class="edge">
<title>Node2&#45;&gt;Node4</title>
<path fill="none" stroke="midnightblue" d="M231,-57.11C231,-48.15 231,-38.32 231,-30.58"/>
<polygon fill="midnightblue" stroke="midnightblue" points="227.5,-57.4 231,-67.4 234.5,-57.4 227.5,-57.4"/>
</g>
<!-- Node5 -->
<g id="node5" class="node">
<title>Node5</title>
<g id="a_node5"><a xlink:href="main_test_8cpp.html" target="_top" xlink:title=" ">
<polygon fill="none" stroke="black" points="332.5,-0.5 332.5,-30.5 475.5,-30.5 475.5,-0.5 332.5,-0.5"/>
<text text-anchor="start" x="340.5" y="-18.5" font-family="Helvetica,sans-Serif" font-size="10.00">/home/allan/Module</text>
<text text-anchor="middle" x="404" y="-7.5" font-family="Helvetica,sans-Serif" font-size="10.00">_Image2/src/mainTest.cpp</text>
</a>
</g>
</g>
<!-- Node2&#45;&gt;Node5 -->
<g id="edge4" class="edge">
<title>Node2&#45;&gt;Node5</title>
<path fill="none" stroke="midnightblue" d="M278.06,-63.82C305.87,-53.37 340.59,-40.32 366.53,-30.58"/>
<polygon fill="midnightblue" stroke="midnightblue" points="276.67,-60.6 268.54,-67.4 279.13,-67.16 276.67,-60.6"/>
</g>
</g>
</svg>
