<?xml version="1.0" encoding="UTF-8" standalone="no"?>
<!DOCTYPE svg PUBLIC "-//W3C//DTD SVG 1.1//EN"
 "http://www.w3.org/Graphics/SVG/1.1/DTD/svg11.dtd">
<!-- Generated by graphviz version 2.43.0 (0)
 -->
<!-- Title: Image::sauver Pages: 1 -->
<svg width="222pt" height="104pt"
 viewBox="0.00 0.00 222.00 104.00" xmlns="http://www.w3.org/2000/svg" xmlns:xlink="http://www.w3.org/1999/xlink">
<g id="graph0" class="graph" transform="scale(1 1) rotate(0) translate(4 100)">
<title>Image::sauver</title>
<!-- Node1 -->
<g id="node1" class="node">
<title>Node1</title>
<g id="a_node1"><a xlink:title="Sauvegarde l&#39;image courante dans un fichier.">
<polygon fill="#bfbfbf" stroke="black" points="0,-38.5 0,-57.5 86,-57.5 86,-38.5 0,-38.5"/>
<text text-anchor="middle" x="43" y="-45.5" font-family="Helvetica,sans-Serif" font-size="10.00">Image::sauver</text>
</a>
</g>
</g>
<!-- Node2 -->
<g id="node2" class="node">
<title>Node2</title>
<g id="a_node2"><a xlink:href="class_pixel.html#a3a76d5bac10c1ff42630e4d0f61f64b6" target="_top" xlink:title="Accesseur : récupère la composante bleue du pixel.">
<polygon fill="none" stroke="black" points="126.5,-76.5 126.5,-95.5 209.5,-95.5 209.5,-76.5 126.5,-76.5"/>
<text text-anchor="middle" x="168" y="-83.5" font-family="Helvetica,sans-Serif" font-size="10.00">Pixel::getBleu</text>
</a>
</g>
</g>
<!-- Node1&#45;&gt;Node2 -->
<g id="edge1" class="edge">
<title>Node1&#45;&gt;Node2</title>
<path fill="none" stroke="midnightblue" d="M75.04,-57.59C90.48,-62.36 109.35,-68.19 125.97,-73.32"/>
<polygon fill="midnightblue" stroke="midnightblue" points="125.38,-76.81 135.97,-76.41 127.45,-70.12 125.38,-76.81"/>
</g>
<!-- Node3 -->
<g id="node3" class="node">
<title>Node3</title>
<g id="a_node3"><a xlink:href="class_pixel.html#ac88830ceb380e2264be281c216bda7dc" target="_top" xlink:title="Accesseur : récupère la composante rouge du pixel.">
<polygon fill="none" stroke="black" points="122,-38.5 122,-57.5 214,-57.5 214,-38.5 122,-38.5"/>
<text text-anchor="middle" x="168" y="-45.5" font-family="Helvetica,sans-Serif" font-size="10.00">Pixel::getRouge</text>
</a>
</g>
</g>
<!-- Node1&#45;&gt;Node3 -->
<g id="edge2" class="edge">
<title>Node1&#45;&gt;Node3</title>
<path fill="none" stroke="midnightblue" d="M86.33,-48C94.43,-48 103.03,-48 111.47,-48"/>
<polygon fill="midnightblue" stroke="midnightblue" points="111.65,-51.5 121.65,-48 111.65,-44.5 111.65,-51.5"/>
</g>
<!-- Node4 -->
<g id="node4" class="node">
<title>Node4</title>
<g id="a_node4"><a xlink:href="class_pixel.html#aada697f8248bbebc7434a5e5101fb667" target="_top" xlink:title="Accesseur : récupère la composante verte du pixel.">
<polygon fill="none" stroke="black" points="127.5,-0.5 127.5,-19.5 208.5,-19.5 208.5,-0.5 127.5,-0.5"/>
<text text-anchor="middle" x="168" y="-7.5" font-family="Helvetica,sans-Serif" font-size="10.00">Pixel::getVert</text>
</a>
</g>
</g>
<!-- Node1&#45;&gt;Node4 -->
<g id="edge3" class="edge">
<title>Node1&#45;&gt;Node4</title>
<path fill="none" stroke="midnightblue" d="M75.04,-38.41C90.48,-33.64 109.35,-27.81 125.97,-22.68"/>
<polygon fill="midnightblue" stroke="midnightblue" points="127.45,-25.88 135.97,-19.59 125.38,-19.19 127.45,-25.88"/>
</g>
</g>
</svg>
