<?xml version="1.0" encoding="UTF-8" standalone="no"?>
<!DOCTYPE svg PUBLIC "-//W3C//DTD SVG 1.1//EN"
 "http://www.w3.org/Graphics/SVG/1.1/DTD/svg11.dtd">
<!-- Generated by graphviz version 2.43.0 (0)
 -->
<!-- Title: Pixel::getRouge Pages: 1 -->
<svg width="342pt" height="66pt"
 viewBox="0.00 0.00 342.00 66.00" xmlns="http://www.w3.org/2000/svg" xmlns:xlink="http://www.w3.org/1999/xlink">
<g id="graph0" class="graph" transform="scale(1 1) rotate(0) translate(4 62)">
<title>Pixel::getRouge</title>
<!-- Node1 -->
<g id="node1" class="node">
<title>Node1</title>
<g id="a_node1"><a xlink:title="Accesseur : récupère la composante rouge du pixel.">
<polygon fill="#bfbfbf" stroke="black" points="242,-19.5 242,-38.5 334,-38.5 334,-19.5 242,-19.5"/>
<text text-anchor="middle" x="288" y="-26.5" font-family="Helvetica,sans-Serif" font-size="10.00">Pixel::getRouge</text>
</a>
</g>
</g>
<!-- Node2 -->
<g id="node2" class="node">
<title>Node2</title>
<g id="a_node2"><a xlink:href="class_image.html#aa3cc6f7401625c11dcd5ef003f37e4fa" target="_top" xlink:title="Affiche une image">
<polygon fill="none" stroke="black" points="77,-38.5 77,-57.5 206,-57.5 206,-38.5 77,-38.5"/>
<text text-anchor="middle" x="141.5" y="-45.5" font-family="Helvetica,sans-Serif" font-size="10.00">Image::afficherConsole</text>
</a>
</g>
</g>
<!-- Node1&#45;&gt;Node2 -->
<g id="edge1" class="edge">
<title>Node1&#45;&gt;Node2</title>
<path fill="none" stroke="midnightblue" d="M231.69,-36.27C223.35,-37.37 214.69,-38.51 206.19,-39.63"/>
<polygon fill="midnightblue" stroke="midnightblue" points="232.22,-39.73 241.68,-34.96 231.3,-32.79 232.22,-39.73"/>
</g>
<!-- Node4 -->
<g id="node4" class="node">
<title>Node4</title>
<g id="a_node4"><a xlink:href="class_image.html#adf51ae329fedeacd95f6fab809f313d5" target="_top" xlink:title="Sauvegarde l&#39;image courante dans un fichier.">
<polygon fill="none" stroke="black" points="98.5,-0.5 98.5,-19.5 184.5,-19.5 184.5,-0.5 98.5,-0.5"/>
<text text-anchor="middle" x="141.5" y="-7.5" font-family="Helvetica,sans-Serif" font-size="10.00">Image::sauver</text>
</a>
</g>
</g>
<!-- Node1&#45;&gt;Node4 -->
<g id="edge3" class="edge">
<title>Node1&#45;&gt;Node4</title>
<path fill="none" stroke="midnightblue" d="M231.63,-21.72C216.06,-19.67 199.38,-17.48 184.71,-15.55"/>
<polygon fill="midnightblue" stroke="midnightblue" points="231.3,-25.21 241.68,-23.04 232.22,-18.27 231.3,-25.21"/>
</g>
<!-- Node3 -->
<g id="node3" class="node">
<title>Node3</title>
<g id="a_node3"><a xlink:href="main_exemple_8cpp.html#ae66f6b31b5ad750f1fe042a706a4e3d4" target="_top" xlink:title=" ">
<polygon fill="none" stroke="black" points="0,-19.5 0,-38.5 41,-38.5 41,-19.5 0,-19.5"/>
<text text-anchor="middle" x="20.5" y="-26.5" font-family="Helvetica,sans-Serif" font-size="10.00">main</text>
</a>
</g>
</g>
<!-- Node2&#45;&gt;Node3 -->
<g id="edge2" class="edge">
<title>Node2&#45;&gt;Node3</title>
<path fill="none" stroke="midnightblue" d="M70.61,-36.84C59.77,-35.11 49.4,-33.46 41.01,-32.12"/>
<polygon fill="midnightblue" stroke="midnightblue" points="70.22,-40.32 80.65,-38.44 71.33,-33.41 70.22,-40.32"/>
</g>
<!-- Node4&#45;&gt;Node3 -->
<g id="edge4" class="edge">
<title>Node4&#45;&gt;Node3</title>
<path fill="none" stroke="midnightblue" d="M87.96,-18.39C71.27,-21.05 53.83,-23.84 41.01,-25.88"/>
<polygon fill="midnightblue" stroke="midnightblue" points="88.89,-21.79 98.21,-16.75 87.78,-14.87 88.89,-21.79"/>
</g>
</g>
</svg>
