<?xml version="1.0" encoding="UTF-8" standalone="no"?>
<!DOCTYPE svg PUBLIC "-//W3C//DTD SVG 1.1//EN"
 "http://www.w3.org/Graphics/SVG/1.1/DTD/svg11.dtd">
<!-- Generated by graphviz version 2.43.0 (0)
 -->
<!-- Title: Image::afficherConsole Pages: 1 -->
<svg width="265pt" height="104pt"
 viewBox="0.00 0.00 265.00 104.00" xmlns="http://www.w3.org/2000/svg" xmlns:xlink="http://www.w3.org/1999/xlink">
<g id="graph0" class="graph" transform="scale(1 1) rotate(0) translate(4 100)">
<title>Image::afficherConsole</title>
<!-- Node1 -->
<g id="node1" class="node">
<title>Node1</title>
<g id="a_node1"><a xlink:title="Affiche une image">
<polygon fill="#bfbfbf" stroke="black" points="0,-38.5 0,-57.5 129,-57.5 129,-38.5 0,-38.5"/>
<text text-anchor="middle" x="64.5" y="-45.5" font-family="Helvetica,sans-Serif" font-size="10.00">Image::afficherConsole</text>
</a>
</g>
</g>
<!-- Node2 -->
<g id="node2" class="node">
<title>Node2</title>
<g id="a_node2"><a xlink:href="class_pixel.html#a3a76d5bac10c1ff42630e4d0f61f64b6" target="_top" xlink:title="Accesseur : récupère la composante bleue du pixel.">
<polygon fill="none" stroke="black" points="169.5,-76.5 169.5,-95.5 252.5,-95.5 252.5,-76.5 169.5,-76.5"/>
<text text-anchor="middle" x="211" y="-83.5" font-family="Helvetica,sans-Serif" font-size="10.00">Pixel::getBleu</text>
</a>
</g>
</g>
<!-- Node1&#45;&gt;Node2 -->
<g id="edge1" class="edge">
<title>Node1&#45;&gt;Node2</title>
<path fill="none" stroke="midnightblue" d="M101.96,-57.59C120.77,-62.54 143.91,-68.62 163.95,-73.89"/>
<polygon fill="midnightblue" stroke="midnightblue" points="163.24,-77.32 173.8,-76.48 165.02,-70.55 163.24,-77.32"/>
</g>
<!-- Node3 -->
<g id="node3" class="node">
<title>Node3</title>
<g id="a_node3"><a xlink:href="class_pixel.html#ac88830ceb380e2264be281c216bda7dc" target="_top" xlink:title="Accesseur : récupère la composante rouge du pixel.">
<polygon fill="none" stroke="black" points="165,-38.5 165,-57.5 257,-57.5 257,-38.5 165,-38.5"/>
<text text-anchor="middle" x="211" y="-45.5" font-family="Helvetica,sans-Serif" font-size="10.00">Pixel::getRouge</text>
</a>
</g>
</g>
<!-- Node1&#45;&gt;Node3 -->
<g id="edge2" class="edge">
<title>Node1&#45;&gt;Node3</title>
<path fill="none" stroke="midnightblue" d="M129.3,-48C137.7,-48 146.25,-48 154.5,-48"/>
<polygon fill="midnightblue" stroke="midnightblue" points="154.74,-51.5 164.74,-48 154.74,-44.5 154.74,-51.5"/>
</g>
<!-- Node4 -->
<g id="node4" class="node">
<title>Node4</title>
<g id="a_node4"><a xlink:href="class_pixel.html#aada697f8248bbebc7434a5e5101fb667" target="_top" xlink:title="Accesseur : récupère la composante verte du pixel.">
<polygon fill="none" stroke="black" points="170.5,-0.5 170.5,-19.5 251.5,-19.5 251.5,-0.5 170.5,-0.5"/>
<text text-anchor="middle" x="211" y="-7.5" font-family="Helvetica,sans-Serif" font-size="10.00">Pixel::getVert</text>
</a>
</g>
</g>
<!-- Node1&#45;&gt;Node4 -->
<g id="edge3" class="edge">
<title>Node1&#45;&gt;Node4</title>
<path fill="none" stroke="midnightblue" d="M101.96,-38.41C120.77,-33.46 143.91,-27.38 163.95,-22.11"/>
<polygon fill="midnightblue" stroke="midnightblue" points="165.02,-25.45 173.8,-19.52 163.24,-18.68 165.02,-25.45"/>
</g>
</g>
</svg>
