<?xml version="1.0" encoding="UTF-8" standalone="no"?>
<!DOCTYPE svg PUBLIC "-//W3C//DTD SVG 1.1//EN"
 "http://www.w3.org/Graphics/SVG/1.1/DTD/svg11.dtd">
<!-- Generated by graphviz version 2.43.0 (0)
 -->
<!-- Title: Pixel::getBleu Pages: 1 -->
<svg width="333pt" height="66pt"
 viewBox="0.00 0.00 333.00 66.00" xmlns="http://www.w3.org/2000/svg" xmlns:xlink="http://www.w3.org/1999/xlink">
<g id="graph0" class="graph" transform="scale(1 1) rotate(0) translate(4 62)">
<title>Pixel::getBleu</title>
<!-- Node1 -->
<g id="node1" class="node">
<title>Node1</title>
<g id="a_node1"><a xlink:title="Accesseur : récupère la composante bleue du pixel.">
<polygon fill="#bfbfbf" stroke="black" points="242,-19.5 242,-38.5 325,-38.5 325,-19.5 242,-19.5"/>
<text text-anchor="middle" x="283.5" y="-26.5" font-family="Helvetica,sans-Serif" font-size="10.00">Pixel::getBleu</text>
</a>
</g>
</g>
<!-- Node2 -->
<g id="node2" class="node">
<title>Node2</title>
<g id="a_node2"><a xlink:href="class_image.html#aa3cc6f7401625c11dcd5ef003f37e4fa" target="_top" xlink:title="Affiche une image">
<polygon fill="none" stroke="black" points="77,-38.5 77,-57.5 206,-57.5 206,-38.5 77,-38.5"/>
<text text-anchor="middle" x="141.5" y="-45.5" font-family="Helvetica,sans-Serif" font-size="10.00">Image::afficherConsole</text>
</a>
</g>
</g>
<!-- Node1&#45;&gt;Node2 -->
<g id="edge1" class="edge">
<title>Node1&#45;&gt;Node2</title>
<path fill="none" stroke="midnightblue" d="M231.71,-35.89C223.38,-37.02 214.67,-38.21 206.08,-39.37"/>
<polygon fill="midnightblue" stroke="midnightblue" points="232.19,-39.36 241.63,-34.55 231.25,-32.42 232.19,-39.36"/>
</g>
<!-- Node4 -->
<g id="node4" class="node">
<title>Node4</title>
<g id="a_node4"><a xlink:href="class_image.html#adf51ae329fedeacd95f6fab809f313d5" target="_top" xlink:title="Sauvegarde l&#39;image courante dans un fichier.">
<polygon fill="none" stroke="black" points="98.5,-0.5 98.5,-19.5 184.5,-19.5 184.5,-0.5 98.5,-0.5"/>
<text text-anchor="middle" x="141.5" y="-7.5" font-family="Helvetica,sans-Serif" font-size="10.00">Image::sauver</text>
</a>
</g>
</g>
<!-- Node1&#45;&gt;Node4 -->
<g id="edge3" class="edge">
<title>Node1&#45;&gt;Node4</title>
<path fill="none" stroke="midnightblue" d="M231.71,-22.11C216.26,-20.01 199.45,-17.73 184.64,-15.72"/>
<polygon fill="midnightblue" stroke="midnightblue" points="231.25,-25.58 241.63,-23.45 232.19,-18.64 231.25,-25.58"/>
</g>
<!-- Node3 -->
<g id="node3" class="node">
<title>Node3</title>
<g id="a_node3"><a xlink:href="main_exemple_8cpp.html#ae66f6b31b5ad750f1fe042a706a4e3d4" target="_top" xlink:title=" ">
<polygon fill="none" stroke="black" points="0,-19.5 0,-38.5 41,-38.5 41,-19.5 0,-19.5"/>
<text text-anchor="middle" x="20.5" y="-26.5" font-family="Helvetica,sans-Serif" font-size="10.00">main</text>
</a>
</g>
</g>
<!-- Node2&#45;&gt;Node3 -->
<g id="edge2" class="edge">
<title>Node2&#45;&gt;Node3</title>
<path fill="none" stroke="midnightblue" d="M70.61,-36.84C59.77,-35.11 49.4,-33.46 41.01,-32.12"/>
<polygon fill="midnightblue" stroke="midnightblue" points="70.22,-40.32 80.65,-38.44 71.33,-33.41 70.22,-40.32"/>
</g>
<!-- Node4&#45;&gt;Node3 -->
<g id="edge4" class="edge">
<title>Node4&#45;&gt;Node3</title>
<path fill="none" stroke="midnightblue" d="M87.96,-18.39C71.27,-21.05 53.83,-23.84 41.01,-25.88"/>
<polygon fill="midnightblue" stroke="midnightblue" points="88.89,-21.79 98.21,-16.75 87.78,-14.87 88.89,-21.79"/>
</g>
</g>
</svg>
