<?xml version="1.0" encoding="UTF-8" standalone="no"?>
<!DOCTYPE svg PUBLIC "-//W3C//DTD SVG 1.1//EN"
 "http://www.w3.org/Graphics/SVG/1.1/DTD/svg11.dtd">
<!-- Generated by graphviz version 2.43.0 (0)
 -->
<!-- Title: main Pages: 1 -->
<svg width="356pt" height="199pt"
 viewBox="0.00 0.00 356.00 199.00" xmlns="http://www.w3.org/2000/svg" xmlns:xlink="http://www.w3.org/1999/xlink">
<g id="graph0" class="graph" transform="scale(1 1) rotate(0) translate(4 195)">
<title>main</title>
<!-- Node1 -->
<g id="node1" class="node">
<title>Node1</title>
<g id="a_node1"><a xlink:title=" ">
<polygon fill="#bfbfbf" stroke="black" points="0,-76.5 0,-95.5 41,-95.5 41,-76.5 0,-76.5"/>
<text text-anchor="middle" x="20.5" y="-83.5" font-family="Helvetica,sans-Serif" font-size="10.00">main</text>
</a>
</g>
</g>
<!-- Node2 -->
<g id="node2" class="node">
<title>Node2</title>
<g id="a_node2"><a xlink:href="class_image.html#aa3cc6f7401625c11dcd5ef003f37e4fa" target="_top" xlink:title="Affiche une image">
<polygon fill="none" stroke="black" points="84,-114.5 84,-133.5 213,-133.5 213,-114.5 84,-114.5"/>
<text text-anchor="middle" x="148.5" y="-121.5" font-family="Helvetica,sans-Serif" font-size="10.00">Image::afficherConsole</text>
</a>
</g>
</g>
<!-- Node1&#45;&gt;Node2 -->
<g id="edge1" class="edge">
<title>Node1&#45;&gt;Node2</title>
<path fill="none" stroke="midnightblue" d="M41.17,-93.09C51.74,-96.81 65.02,-101.34 77,-105 84.5,-107.29 92.49,-109.59 100.3,-111.75"/>
<polygon fill="midnightblue" stroke="midnightblue" points="99.48,-115.15 110.05,-114.4 101.32,-108.4 99.48,-115.15"/>
</g>
<!-- Node6 -->
<g id="node6" class="node">
<title>Node6</title>
<g id="a_node6"><a xlink:href="class_image.html#ac0f8808d3c6a0654ad3a5d09a0c7209d" target="_top" xlink:title="Dessine un rectangle plein de la couleur dans l&#39;image (en utilisant setPix, indices en paramètre comp...">
<polygon fill="none" stroke="black" points="77,-76.5 77,-95.5 220,-95.5 220,-76.5 77,-76.5"/>
<text text-anchor="middle" x="148.5" y="-83.5" font-family="Helvetica,sans-Serif" font-size="10.00">Image::dessinerRectangle</text>
</a>
</g>
</g>
<!-- Node1&#45;&gt;Node6 -->
<g id="edge5" class="edge">
<title>Node1&#45;&gt;Node6</title>
<path fill="none" stroke="midnightblue" d="M41.19,-86C48.53,-86 57.4,-86 66.85,-86"/>
<polygon fill="midnightblue" stroke="midnightblue" points="66.86,-89.5 76.86,-86 66.86,-82.5 66.86,-89.5"/>
</g>
<!-- Node7 -->
<g id="node7" class="node">
<title>Node7</title>
<g id="a_node7"><a xlink:href="class_image.html#ad159951e9564d29f28112ece322c0a97" target="_top" xlink:title=" ">
<polygon fill="none" stroke="black" points="105,-38.5 105,-57.5 192,-57.5 192,-38.5 105,-38.5"/>
<text text-anchor="middle" x="148.5" y="-45.5" font-family="Helvetica,sans-Serif" font-size="10.00">Image::effacer</text>
</a>
</g>
</g>
<!-- Node1&#45;&gt;Node7 -->
<g id="edge6" class="edge">
<title>Node1&#45;&gt;Node7</title>
<path fill="none" stroke="midnightblue" d="M41.17,-78.91C51.74,-75.19 65.02,-70.66 77,-67 84.5,-64.71 92.49,-62.41 100.3,-60.25"/>
<polygon fill="midnightblue" stroke="midnightblue" points="101.32,-63.6 110.05,-57.6 99.48,-56.85 101.32,-63.6"/>
</g>
<!-- Node8 -->
<g id="node8" class="node">
<title>Node8</title>
<g id="a_node8"><a xlink:href="class_image.html#a3696ea24faa90a9c2315e073f356960f" target="_top" xlink:title="Remplace une image par celle présente dans le fichier ouvert.">
<polygon fill="none" stroke="black" points="107.5,-0.5 107.5,-19.5 189.5,-19.5 189.5,-0.5 107.5,-0.5"/>
<text text-anchor="middle" x="148.5" y="-7.5" font-family="Helvetica,sans-Serif" font-size="10.00">Image::ouvrir</text>
</a>
</g>
</g>
<!-- Node1&#45;&gt;Node8 -->
<g id="edge7" class="edge">
<title>Node1&#45;&gt;Node8</title>
<path fill="none" stroke="midnightblue" d="M28.23,-76.39C37.67,-63.63 56.04,-41.31 77,-29 83.31,-25.29 90.36,-22.29 97.5,-19.87"/>
<polygon fill="midnightblue" stroke="midnightblue" points="98.68,-23.17 107.22,-16.9 96.64,-16.47 98.68,-23.17"/>
</g>
<!-- Node10 -->
<g id="node10" class="node">
<title>Node10</title>
<g id="a_node10"><a xlink:href="class_image.html#adf51ae329fedeacd95f6fab809f313d5" target="_top" xlink:title="Sauvegarde l&#39;image courante dans un fichier.">
<polygon fill="none" stroke="black" points="105.5,-152.5 105.5,-171.5 191.5,-171.5 191.5,-152.5 105.5,-152.5"/>
<text text-anchor="middle" x="148.5" y="-159.5" font-family="Helvetica,sans-Serif" font-size="10.00">Image::sauver</text>
</a>
</g>
</g>
<!-- Node1&#45;&gt;Node10 -->
<g id="edge9" class="edge">
<title>Node1&#45;&gt;Node10</title>
<path fill="none" stroke="midnightblue" d="M28.23,-95.61C37.67,-108.37 56.04,-130.69 77,-143 82.8,-146.41 89.23,-149.22 95.77,-151.53"/>
<polygon fill="midnightblue" stroke="midnightblue" points="94.79,-154.89 105.38,-154.58 96.91,-148.22 94.79,-154.89"/>
</g>
<!-- Node3 -->
<g id="node3" class="node">
<title>Node3</title>
<g id="a_node3"><a xlink:href="class_pixel.html#a3a76d5bac10c1ff42630e4d0f61f64b6" target="_top" xlink:title="Accesseur : récupère la composante bleue du pixel.">
<polygon fill="none" stroke="black" points="260.5,-171.5 260.5,-190.5 343.5,-190.5 343.5,-171.5 260.5,-171.5"/>
<text text-anchor="middle" x="302" y="-178.5" font-family="Helvetica,sans-Serif" font-size="10.00">Pixel::getBleu</text>
</a>
</g>
</g>
<!-- Node2&#45;&gt;Node3 -->
<g id="edge2" class="edge">
<title>Node2&#45;&gt;Node3</title>
<path fill="none" stroke="midnightblue" d="M191.01,-133.54C200.66,-136.21 210.8,-139.38 220,-143 236.84,-149.62 239.65,-154.25 256,-162 259.79,-163.8 263.8,-165.61 267.8,-167.37"/>
<polygon fill="midnightblue" stroke="midnightblue" points="266.44,-170.59 277.01,-171.32 269.2,-164.16 266.44,-170.59"/>
</g>
<!-- Node4 -->
<g id="node4" class="node">
<title>Node4</title>
<g id="a_node4"><a xlink:href="class_pixel.html#ac88830ceb380e2264be281c216bda7dc" target="_top" xlink:title="Accesseur : récupère la composante rouge du pixel.">
<polygon fill="none" stroke="black" points="256,-133.5 256,-152.5 348,-152.5 348,-133.5 256,-133.5"/>
<text text-anchor="middle" x="302" y="-140.5" font-family="Helvetica,sans-Serif" font-size="10.00">Pixel::getRouge</text>
</a>
</g>
</g>
<!-- Node2&#45;&gt;Node4 -->
<g id="edge3" class="edge">
<title>Node2&#45;&gt;Node4</title>
<path fill="none" stroke="midnightblue" d="M213.31,-132C223.98,-133.34 234.98,-134.72 245.43,-136.03"/>
<polygon fill="midnightblue" stroke="midnightblue" points="245.3,-139.54 255.66,-137.31 246.17,-132.6 245.3,-139.54"/>
</g>
<!-- Node5 -->
<g id="node5" class="node">
<title>Node5</title>
<g id="a_node5"><a xlink:href="class_pixel.html#aada697f8248bbebc7434a5e5101fb667" target="_top" xlink:title="Accesseur : récupère la composante verte du pixel.">
<polygon fill="none" stroke="black" points="261.5,-95.5 261.5,-114.5 342.5,-114.5 342.5,-95.5 261.5,-95.5"/>
<text text-anchor="middle" x="302" y="-102.5" font-family="Helvetica,sans-Serif" font-size="10.00">Pixel::getVert</text>
</a>
</g>
</g>
<!-- Node2&#45;&gt;Node5 -->
<g id="edge4" class="edge">
<title>Node2&#45;&gt;Node5</title>
<path fill="none" stroke="midnightblue" d="M213.31,-116C226.07,-114.4 239.3,-112.74 251.49,-111.21"/>
<polygon fill="midnightblue" stroke="midnightblue" points="251.97,-114.68 261.45,-109.96 251.1,-107.73 251.97,-114.68"/>
</g>
<!-- Node9 -->
<g id="node9" class="node">
<title>Node9</title>
<g id="a_node9"><a xlink:href="class_pixel.html#a2a1aed9785799a3f75de911438d0ceda" target="_top" xlink:title="Mutateur : modifie la composante rouge du pixel.">
<polygon fill="none" stroke="black" points="256,-0.5 256,-19.5 348,-19.5 348,-0.5 256,-0.5"/>
<text text-anchor="middle" x="302" y="-7.5" font-family="Helvetica,sans-Serif" font-size="10.00">Pixel::setRouge</text>
</a>
</g>
</g>
<!-- Node8&#45;&gt;Node9 -->
<g id="edge8" class="edge">
<title>Node8&#45;&gt;Node9</title>
<path fill="none" stroke="midnightblue" d="M189.7,-10C206.86,-10 227.17,-10 245.71,-10"/>
<polygon fill="midnightblue" stroke="midnightblue" points="245.8,-13.5 255.8,-10 245.8,-6.5 245.8,-13.5"/>
</g>
<!-- Node10&#45;&gt;Node3 -->
<g id="edge10" class="edge">
<title>Node10&#45;&gt;Node3</title>
<path fill="none" stroke="midnightblue" d="M191.7,-167.29C209.88,-169.57 231.3,-172.26 250.33,-174.65"/>
<polygon fill="midnightblue" stroke="midnightblue" points="249.97,-178.13 260.33,-175.9 250.84,-171.18 249.97,-178.13"/>
</g>
<!-- Node10&#45;&gt;Node4 -->
<g id="edge11" class="edge">
<title>Node10&#45;&gt;Node4</title>
<path fill="none" stroke="midnightblue" d="M191.7,-156.71C208.39,-154.61 227.8,-152.18 245.59,-149.95"/>
<polygon fill="midnightblue" stroke="midnightblue" points="246.36,-153.38 255.85,-148.66 245.49,-146.43 246.36,-153.38"/>
</g>
<!-- Node10&#45;&gt;Node5 -->
<g id="edge12" class="edge">
<title>Node10&#45;&gt;Node5</title>
<path fill="none" stroke="midnightblue" d="M191.01,-152.46C200.66,-149.79 210.8,-146.62 220,-143 236.84,-136.38 239.65,-131.75 256,-124 259.79,-122.2 263.8,-120.39 267.8,-118.63"/>
<polygon fill="midnightblue" stroke="midnightblue" points="269.2,-121.84 277.01,-114.68 266.44,-115.41 269.2,-121.84"/>
</g>
</g>
</svg>
